<svg width="26" height="24" viewBox="0 0 26 24" fill="none" xmlns="http://www.w3.org/2000/svg">
<g clip-path="url(#clip0)">
<path d="M12.2629 18.0151C10.1699 15.9847 8.12468 14.0034 6.06299 12.0048C6.66075 11.4468 7.28485 10.8636 7.96495 10.2296C9.33337 11.5847 10.7232 12.9605 12.1394 14.3616C16.1837 10.4372 20.1342 6.6031 24.1061 2.75156C24.8224 3.48382 25.4284 4.10356 26.0031 4.69159C21.4828 9.07252 16.8885 13.5279 12.2629 18.0151Z" fill="#F44172"/>
<path d="M22.206 10.7082C22.2669 11.1314 22.2998 11.561 22.2998 12C22.2998 17.2178 17.8883 21.464 12.4673 21.464C7.0463 21.464 2.63475 17.2178 2.63475 12C2.63475 6.7822 7.0463 2.53599 12.4673 2.53599C15.0378 2.53599 17.3794 3.49174 19.1332 5.05138L21.0895 3.34593C18.8483 1.27592 15.8101 0 12.4673 0C5.59225 0 0 5.38264 0 12C0 18.6174 5.59225 24 12.4673 24C19.3423 24 24.9346 18.6174 24.9346 12C24.9346 10.8699 24.7683 9.77784 24.4636 8.73966L22.206 10.7082Z" fill="#F44172"/>
</g>
<defs>
<clipPath id="clip0">
<rect width="26" height="24" fill="white"/>
</clipPath>
</defs>
</svg>
